<svg width="26" height="28" viewBox="0 0 26 28" fill="none" xmlns="http://www.w3.org/2000/svg">
<path fill-rule="evenodd" clip-rule="evenodd" d="M14.1067 2.23655C13.8533 2.09523 13.5262 1.99948 13.0008 2.00003C12.4745 2.00057 12.1466 2.09645 11.8929 2.23778C11.6303 2.38406 11.3847 2.61293 11.0681 2.99039C9.54988 5.11613 7.34962 9.05795 5.45261 12.8161C4.50388 14.6955 3.63857 16.5141 2.98065 18.0155C2.30988 19.5463 1.8889 20.6724 1.78204 21.2067C1.55045 22.3646 1.99407 23.6237 2.90408 24.5829C3.81011 25.538 5.10547 26.115 6.45023 25.9806C7.72418 25.8532 9.09183 25.0075 10.2532 24.0322C10.9655 23.4339 11.5536 22.8271 11.9354 22.4059C9.11057 19.2035 5.76032 11.3879 12.3513 10.5277C12.7839 10.4712 13.2161 10.4712 13.6487 10.5277C20.2397 11.3879 16.8894 19.2035 14.0646 22.4059C14.4465 22.8271 15.0345 23.4339 15.7468 24.0322C16.9082 25.0075 18.2758 25.8532 19.5498 25.9806C20.8945 26.115 22.1899 25.538 23.0959 24.5829C24.0059 23.6237 24.4496 22.3646 24.218 21.2067C24.0751 20.4923 23.5269 19.1038 22.7068 17.3193C21.9008 15.5654 20.8705 13.5091 19.817 11.5006C18.764 9.49281 17.6915 7.54009 16.8029 5.99456C15.8959 4.41717 15.2216 3.33792 14.9505 3.01257C14.6245 2.62138 14.3744 2.38589 14.1067 2.23655ZM13 23.6126C13.4174 24.0644 14.0107 24.6635 14.7179 25.2574C15.9361 26.2805 17.6165 27.3952 19.3906 27.5726C21.3001 27.7636 23.0637 26.9416 24.2567 25.6841C25.4457 24.4308 26.1411 22.6638 25.7869 20.8929C25.6013 19.9647 24.9682 18.4085 24.1606 16.6512C23.339 14.8632 22.295 12.7803 21.234 10.7574C20.1725 8.73369 19.0902 6.76265 18.1899 5.19702C17.308 3.66326 16.5594 2.44396 16.1796 1.98828C15.8127 1.54796 15.412 1.13259 14.8862 0.83928C14.3461 0.53796 13.7372 0.399262 12.9992 0.400028C12.2622 0.400792 11.654 0.539362 11.1143 0.840018C10.5885 1.13289 10.1877 1.54748 9.82039 1.98828L9.80166 2.01075L9.78463 2.03452C8.18941 4.26122 5.93367 8.31241 4.02426 12.0951C3.06619 13.9931 2.18767 15.8386 1.51517 17.3734C0.855512 18.8788 0.359461 20.1611 0.213112 20.8929C-0.141065 22.6638 0.554312 24.4308 1.74331 25.6841C2.93628 26.9416 4.69993 27.7636 6.60944 27.5726C8.38356 27.3952 10.064 26.2805 11.2822 25.2574C11.9894 24.6635 12.5826 24.0644 13 23.6126ZM13 21.1914C14.8917 19.0184 18.4745 12.7711 13.4416 12.1142C13.1474 12.0758 12.8529 12.0758 12.5584 12.1142C7.52553 12.7711 11.1083 19.0184 13 21.1914Z" fill="#1A1A1B"/>
</svg>
