<svg width="24" height="24" viewBox="0 0 24 24" xmlns="http://www.w3.org/2000/svg">
<path d="M11.9999 0.525024C5.67215 0.525024 0.524902 5.67227 0.524902 12C0.524902 18.3278 5.67215 23.475 11.9999 23.475C18.3277 23.475 23.4749 18.3278 23.4749 12C23.4749 5.67227 18.3277 0.525024 11.9999 0.525024V0.525024ZM11.9999 21.525C8.98415 21.525 6.29615 20.112 4.55015 17.9175C5.76636 16.3262 7.46292 15.169 9.3884 14.6175C8.69511 14.1771 8.12418 13.5689 7.72851 12.8491C7.33283 12.1293 7.12522 11.3214 7.1249 10.5C7.1249 7.81202 9.3119 5.62502 11.9999 5.62502C14.6879 5.62502 16.8749 7.81202 16.8749 10.5C16.8742 11.3215 16.6664 12.1295 16.2706 12.8493C15.8748 13.5692 15.3039 14.1776 14.6107 14.6183C16.5365 15.1694 18.2334 16.3266 19.4497 17.9183C17.7037 20.112 15.0157 21.525 11.9999 21.525Z" />
</svg>
