<svg width="30" height="28" viewBox="0 0 30 28" fill="none" xmlns="http://www.w3.org/2000/svg">
<path d="M14.1062 0.927998C14.2112 0.716997 14.3872 0.550997 14.6032 0.456997C14.8192 0.363997 15.0612 0.349997 15.2872 0.416997L15.4012 0.458997L23.4012 3.959C23.5832 4.039 23.7372 4.171 23.8442 4.339L23.9022 4.442L29.9022 16.942C29.9502 17.043 29.9822 17.152 29.9942 17.263L30.0002 17.375V26.375C30.0002 26.62 29.9102 26.856 29.7472 27.039C29.5852 27.223 29.3602 27.339 29.1172 27.368L29.0002 27.375H1.00023C0.862234 27.375 0.725234 27.346 0.599234 27.291C0.472234 27.236 0.359234 27.155 0.265234 27.053C0.171233 26.952 0.100234 26.832 0.0552339 26.702C0.00923338 26.571 -0.00776682 26.433 0.00323381 26.295L0.0192336 26.179L3.01923 11.179C3.05123 11.02 3.12123 10.87 3.22423 10.744C3.32723 10.618 3.45923 10.519 3.60923 10.455L3.72523 10.413L10.3022 8.534L14.1062 0.927998ZM15.4692 2.672L11.8942 9.822C11.7872 10.036 11.6072 10.204 11.3872 10.297L11.2752 10.337L4.86123 12.168L4.01923 16.375H7.00023V18.375H3.61923L2.21923 25.375H8.99923L9.00023 23.375C9.00023 21.823 9.60223 20.331 10.6782 19.213C11.7552 18.094 13.2242 17.437 14.7752 17.379L15.0002 17.375C16.5522 17.375 18.0442 17.977 19.1622 19.053C20.2812 20.13 20.9382 21.599 20.9962 23.15L21.0002 23.375V25.375H28.0002V17.603L27.4102 16.375H23.0002V14.375H26.4502L25.0002 11.352V11.375H18.0002V9.375H24.0502L22.2602 5.642L15.4702 2.672H15.4692ZM15.0002 19.375C13.9742 19.375 12.9872 19.77 12.2432 20.477C11.5002 21.184 11.0562 22.15 11.0052 23.175L11.0002 23.375V25.375H19.0002V23.375C19.0002 22.384 18.6322 21.428 17.9682 20.693C17.3032 19.957 16.3892 19.495 15.4032 19.395L15.2002 19.38L15.0002 19.375Z" fill="#3C3C3C"/>
</svg>
