<svg width="28" height="29" viewBox="0 0 28 29" fill="none" xmlns="http://www.w3.org/2000/svg">
<path d="M26 5.5H18V2.5C17.999 1.97 17.788 1.461 17.413 1.086C17.039 0.712 16.53 0.501 16 0.5H2C1.47 0.501 0.961 0.711 0.586 1.086C0.211 1.461 0.0010004 1.97 0 2.5V26.5C0.0010004 27.03 0.212 27.539 0.586 27.913C0.961 28.288 1.47 28.499 2 28.5H26C26.53 28.499 27.038 28.288 27.413 27.913C27.788 27.538 27.999 27.03 28 26.5V7.5C27.999 6.97 27.788 6.461 27.413 6.086C27.039 5.712 26.53 5.501 26 5.5ZM11 26.5H7V21.5H11V26.5ZM16 26.5H13V21.5C12.999 20.97 12.788 20.461 12.413 20.087C12.039 19.712 11.53 19.501 11 19.5H7C6.47 19.501 5.961 19.712 5.586 20.087C5.212 20.461 5.001 20.97 5 21.5V26.5H2L1.999 2.5H16V26.5ZM26 26.5H18V7.5H26V26.5ZM23 14.5C23 14.698 22.941 14.891 22.831 15.056C22.722 15.22 22.565 15.348 22.383 15.424C22.2 15.5 21.999 15.519 21.805 15.481C21.611 15.442 21.433 15.347 21.293 15.207C21.153 15.067 21.058 14.889 21.019 14.695C20.981 14.501 21 14.3 21.076 14.117C21.152 13.935 21.28 13.778 21.444 13.669C21.609 13.559 21.802 13.5 22 13.5C22.265 13.5 22.52 13.605 22.707 13.793C22.895 13.98 23 14.235 23 14.5ZM21 10.5C21 10.302 21.059 10.109 21.169 9.944C21.278 9.78 21.435 9.652 21.617 9.576C21.8 9.5 22.001 9.481 22.195 9.519C22.389 9.558 22.567 9.653 22.707 9.793C22.847 9.933 22.942 10.111 22.981 10.305C23.019 10.499 23 10.7 22.924 10.883C22.848 11.065 22.72 11.222 22.556 11.331C22.391 11.441 22.198 11.5 22 11.5C21.735 11.5 21.48 11.395 21.293 11.207C21.105 11.02 21 10.765 21 10.5ZM13 14.5C13 14.698 12.941 14.891 12.831 15.056C12.722 15.22 12.565 15.348 12.383 15.424C12.2 15.5 11.999 15.519 11.805 15.481C11.611 15.442 11.433 15.347 11.293 15.207C11.153 15.067 11.058 14.889 11.019 14.695C10.981 14.501 11 14.3 11.076 14.117C11.152 13.935 11.28 13.778 11.444 13.669C11.609 13.559 11.802 13.5 12 13.5C12.265 13.5 12.52 13.605 12.707 13.793C12.895 13.98 13 14.235 13 14.5ZM13 10.5C13 10.698 12.941 10.891 12.831 11.056C12.722 11.22 12.565 11.348 12.383 11.424C12.2 11.5 11.999 11.519 11.805 11.481C11.611 11.442 11.433 11.347 11.293 11.207C11.153 11.067 11.058 10.889 11.019 10.695C10.981 10.501 11 10.3 11.076 10.117C11.152 9.935 11.28 9.778 11.444 9.669C11.609 9.559 11.802 9.5 12 9.5C12.265 9.5 12.52 9.605 12.707 9.793C12.895 9.98 13 10.235 13 10.5ZM13 6.5C13 6.698 12.941 6.891 12.831 7.056C12.722 7.22 12.565 7.348 12.383 7.424C12.2 7.5 11.999 7.519 11.805 7.481C11.611 7.442 11.433 7.347 11.293 7.207C11.153 7.067 11.058 6.889 11.019 6.695C10.981 6.501 11 6.3 11.076 6.117C11.152 5.935 11.28 5.778 11.444 5.669C11.609 5.559 11.802 5.5 12 5.5C12.265 5.5 12.52 5.605 12.707 5.793C12.895 5.98 13 6.235 13 6.5ZM7 14.5C7 14.698 6.941 14.891 6.831 15.056C6.722 15.22 6.565 15.348 6.383 15.424C6.2 15.5 5.999 15.519 5.805 15.481C5.611 15.442 5.433 15.347 5.293 15.207C5.153 15.067 5.058 14.889 5.019 14.695C4.981 14.501 5 14.3 5.076 14.117C5.152 13.935 5.28 13.778 5.444 13.669C5.609 13.559 5.802 13.5 6 13.5C6.265 13.5 6.52 13.605 6.707 13.793C6.895 13.98 7 14.235 7 14.5ZM7 10.5C7 10.698 6.941 10.891 6.831 11.056C6.722 11.22 6.565 11.348 6.383 11.424C6.2 11.5 5.999 11.519 5.805 11.481C5.611 11.442 5.433 11.347 5.293 11.207C5.153 11.067 5.058 10.889 5.019 10.695C4.981 10.501 5 10.3 5.076 10.117C5.152 9.935 5.28 9.778 5.444 9.669C5.609 9.559 5.802 9.5 6 9.5C6.265 9.5 6.52 9.605 6.707 9.793C6.895 9.98 7 10.235 7 10.5ZM7 6.5C7 6.698 6.941 6.891 6.831 7.056C6.722 7.22 6.565 7.348 6.383 7.424C6.2 7.5 5.999 7.519 5.805 7.481C5.611 7.442 5.433 7.347 5.293 7.207C5.153 7.067 5.058 6.889 5.019 6.695C4.981 6.501 5 6.3 5.076 6.117C5.152 5.935 5.28 5.778 5.444 5.669C5.609 5.559 5.802 5.5 6 5.5C6.265 5.5 6.52 5.605 6.707 5.793C6.895 5.98 7 6.235 7 6.5Z" fill="#3C3C3C"/>
</svg>
