<svg width="28" height="29" viewBox="0 0 28 29" fill="none" xmlns="http://www.w3.org/2000/svg">
<path d="M26 0.5V7.286C27.236 9.336 27.922 11.67 27.993 14.062L28 14.5V26.5C28 27.005 27.81 27.491 27.467 27.861C27.123 28.23 26.653 28.457 26.15 28.495L26 28.5H2C1.495 28.5 1.009 28.31 0.639 27.966C0.269 27.623 0.0430002 27.153 0.00500011 26.65L0 26.5V14.5C0 6.768 6.268 0.5 14 0.5C17.918 0.5 21.46 2.11 24 4.703V0.5H26ZM14 2.5C7.475 2.5 2.166 7.709 2.004 14.195L2 14.5V26.5H9V16.5H7V14.5H21V16.5H19V26.5H26V14.5C26 7.873 20.627 2.5 14 2.5ZM17 16.5H11V26.5H17V16.5ZM14 9.5C14.265 9.5 14.52 9.605 14.707 9.793C14.895 9.98 15 10.235 15 10.5C15 10.765 14.895 11.02 14.707 11.207C14.52 11.395 14.265 11.5 14 11.5C13.735 11.5 13.48 11.395 13.293 11.207C13.105 11.02 13 10.765 13 10.5C13 10.235 13.105 9.98 13.293 9.793C13.48 9.605 13.735 9.5 14 9.5Z" fill="#3C3C3C"/>
</svg>
