<svg width="28" height="29" viewBox="0 0 28 29" fill="none" xmlns="http://www.w3.org/2000/svg">
<path d="M6.5 0.5C8.914 0.5 10.885 2.401 10.995 4.788L11 5V9.698L16.405 5.696C16.733 5.453 17.172 5.437 17.514 5.642L17.625 5.719L23 10.02V6.5H25V11.62L27.625 13.719L26.375 15.281L25 14.18L24.999 18.5H27C27.513 18.5 27.936 18.886 27.993 19.383L28 19.5V27.5C28 28.013 27.614 28.436 27.117 28.493L27 28.5H0V26.5H7.545L9.295 24.5H0V22.5H11V22.552L12.795 20.5H0V18.5H2V5C2 2.515 4.015 0.5 6.5 0.5ZM18.795 20.5H15.453L10.203 26.5H13.545L18.795 20.5ZM26 22.16L22.203 26.5H26V22.16ZM24.795 20.5H21.453L16.203 26.5H19.545L24.795 20.5ZM23 12.58L16.976 7.761L11 12.187V18.5H13.999L14 14.5C14 13.987 14.386 13.564 14.883 13.507L15 13.5H19C19.513 13.5 19.936 13.886 19.993 14.383L20 14.5L19.999 18.5H22.999L23 12.58ZM6.5 2.5C5.175 2.5 4.09 3.532 4.005 4.836L4 5V18.5H9V5C9 3.619 7.881 2.5 6.5 2.5ZM18 15.5H16V18.5H18V15.5Z" fill="#3C3C3C"/>
</svg>
