<svg width="19" height="19" viewBox="0 0 19 19" fill="none" xmlns="http://www.w3.org/2000/svg">
<path d="M5.50008 9C7.45908 9 9.12708 10.2525 9.74508 12H19.0001V15H9.74358C9.46881 15.7783 8.98532 16.4661 8.34598 16.9882C7.70665 17.5103 6.93607 17.8465 6.11852 17.9601C5.30097 18.0738 4.46791 17.9604 3.71043 17.6325C2.95295 17.3046 2.30022 16.7747 1.8236 16.1008C1.34699 15.4269 1.06484 14.6349 1.008 13.8115C0.951164 12.988 1.12183 12.1648 1.50134 11.4318C1.88085 10.6988 2.4546 10.0843 3.15984 9.65537C3.86508 9.22649 4.67466 8.99977 5.50008 9ZM5.50008 12C5.10225 12 4.72072 12.158 4.43942 12.4393C4.15811 12.7206 4.00008 13.1022 4.00008 13.5C4.00008 13.8978 4.15811 14.2794 4.43942 14.5607C4.72072 14.842 5.10225 15 5.50008 15C5.8979 15 6.27943 14.842 6.56074 14.5607C6.84204 14.2794 7.00008 13.8978 7.00008 13.5C7.00008 13.1022 6.84204 12.7206 6.56074 12.4393C6.27943 12.158 5.8979 12 5.50008 12ZM14.5001 1.87448e-07C15.325 0.000157725 16.1341 0.227086 16.8388 0.655983C17.5435 1.08488 18.1167 1.69924 18.4958 2.43192C18.875 3.1646 19.0454 3.9874 18.9885 4.81039C18.9316 5.63338 18.6496 6.4249 18.1732 7.09843C17.6969 7.77196 17.0445 8.30158 16.2875 8.62941C15.5305 8.95725 14.6979 9.07068 13.8808 8.9573C13.0636 8.84392 12.2934 8.50811 11.6542 7.98655C11.0151 7.465 10.5316 6.77778 10.2566 6H1.00008V3H10.2551C10.5656 2.12239 11.1406 1.36263 11.9008 0.82536C12.661 0.288089 13.5692 -0.000268392 14.5001 1.87448e-07ZM14.5001 3C14.1023 3 13.7207 3.15804 13.4394 3.43934C13.1581 3.72064 13.0001 4.10218 13.0001 4.5C13.0001 4.89783 13.1581 5.27936 13.4394 5.56066C13.7207 5.84196 14.1023 6 14.5001 6C14.8979 6 15.2794 5.84196 15.5607 5.56066C15.842 5.27936 16.0001 4.89783 16.0001 4.5C16.0001 4.10218 15.842 3.72064 15.5607 3.43934C15.2794 3.15804 14.8979 3 14.5001 3Z" fill="black"/>
</svg>
