<svg width="31" height="29" viewBox="0 0 31 29" xmlns="http://www.w3.org/2000/svg">
<path d="M17.155 0.780992L17.33 0.944991L30.402 13.787L29 15.213L27.2 13.445L27.201 27C27.201 28.054 26.385 28.918 25.35 28.994L25.201 29H5.201C4.147 29 3.283 28.184 3.206 27.149L3.201 27L3.2 13.446L1.402 15.213L0 13.787L13.058 0.957992C14.171 -0.178009 15.966 -0.241009 17.155 0.780992ZM14.569 2.28499L14.473 2.37199L5.2 11.481L5.201 27L10.2 26.999L10.201 17C10.201 15.946 11.017 15.082 12.052 15.005L12.201 15H18.201C19.255 15 20.119 15.816 20.196 16.851L20.201 17L20.2 26.999L25.201 27L25.2 11.48L15.901 2.34399C15.537 1.98699 14.969 1.96499 14.569 2.28499ZM18.201 17H12.201L12.2 26.999H18.2L18.201 17Z" fill="#3C3C3C"/>
</svg>
