<svg width="32" height="31" viewBox="0 0 32 31" fill="none" xmlns="http://www.w3.org/2000/svg">
<path d="M30.8125 0.606003L31.7065 2.394L29.2595 3.618V28.5C29.2595 29.554 28.4435 30.418 27.4085 30.494L27.2595 30.5H5.2595C4.2055 30.5 3.3415 29.684 3.2655 28.649L3.2595 28.5V16.618L1.7065 17.394L0.8125 15.606L3.2595 14.383V6.5H5.2595V13.383L30.8125 0.606003ZM27.2595 4.618L5.2595 15.618V28.5H11.2595V18.5C11.2595 17.446 12.0755 16.582 13.1105 16.505L13.2595 16.5H19.2595C20.3135 16.5 21.1775 17.316 21.2545 18.351L21.2595 18.5V28.5H27.2595V4.618ZM19.2595 18.5H13.2595V28.5H19.2595V18.5ZM24.2595 10.5C24.8115 10.5 25.2595 10.948 25.2595 11.5C25.2595 12.052 24.8115 12.5 24.2595 12.5C23.7075 12.5 23.2595 12.052 23.2595 11.5C23.2595 10.948 23.7075 10.5 24.2595 10.5Z" fill="#3C3C3C"/>
</svg>
